<?xml version="1.0" standalone="no"?>
<!DOCTYPE svg PUBLIC "-//W3C//DTD SVG 20010904//EN"
 "http://www.w3.org/TR/2001/REC-SVG-20010904/DTD/svg10.dtd">
<svg version="1.0" xmlns="http://www.w3.org/2000/svg"
 width="1000.000000pt" height="1000.000000pt" viewBox="0 0 1000.000000 1000.000000"
 preserveAspectRatio="xMidYMid meet">
<metadata>
Created by potrace 1.14, written by Peter Selinger 2001-2017
</metadata>
<g transform="translate(0.000000,1000.000000) scale(0.100000,-0.100000)"
fill="#000000" stroke="none">
<path d="M4285 8417 c-402 -471 -731 -862 -733 -869 -1 -7 134 -173 300 -369
167 -195 336 -394 376 -441 l73 -86 -657 -1379 c-361 -758 -664 -1393 -673
-1411 l-17 -33 -520 477 -521 477 50 66 c62 81 128 217 163 336 25 82 27 105
28 260 1 201 -17 290 -88 441 -58 122 -106 193 -190 282 -96 101 -173 156
-301 217 -173 83 -248 100 -445 100 -150 0 -174 -3 -262 -28 -189 -53 -337
-139 -466 -269 -128 -129 -222 -288 -272 -458 -28 -95 -39 -324 -20 -437 34
-214 138 -415 292 -565 90 -89 164 -142 277 -198 78 -39 233 -90 275 -90 11 0
27 -4 35 -9 12 -8 47 -390 172 -1888 87 -1033 158 -1881 159 -1885 0 -5 1660
-8 3689 -8 l3688 0 5 47 c3 27 75 877 159 1890 l154 1843 35 6 c400 67 730
365 835 756 22 81 25 114 25 259 0 143 -3 180 -24 261 -117 460 -529 779
-1005 778 -599 -3 -1077 -522 -1022 -1112 19 -198 89 -388 194 -527 26 -35 47
-67 45 -71 -4 -11 -1040 -960 -1048 -960 -11 0 -1352 2779 -1348 2793 2 8 176
217 388 465 212 249 385 459 385 467 0 8 -122 157 -271 332 -562 661 -1123
1319 -1156 1357 l-34 39 -729 -856z"/>
</g>
</svg>
